<svg width="254" height="256" viewBox="0 0 254 256" fill="none" xmlns="http://www.w3.org/2000/svg">
<path fill-rule="evenodd" clip-rule="evenodd" d="M144.651 32L32 32C14.3269 32 0 46.3269 0 64V224C0 241.673 14.3269 256 32 256H192C209.673 256 224 241.673 224 224V108.457C216.693 111.88 208.569 113.849 200 113.992V224C200 228.418 196.418 232 192 232H32C27.5817 232 24 228.418 24 224V64C24 59.5817 27.5817 56 32 56H140.008C140.003 55.6673 140 55.334 140 55C140 46.8405 141.656 39.0679 144.651 32Z" fill="#FF6B6B"/>
<circle cx="195" cy="59" r="51" stroke="#FF6B6B" stroke-width="16"/>
</svg>
